<svg xmlns="http://www.w3.org/2000/svg" viewBox="0 0 512 512">
  <g fill="#FDC100">
    <rect x="241" y="21" width="30" height="90" rx="15" transform="rotate(0 256 256)" />
    <rect x="241" y="21" width="30" height="90" rx="15" transform="rotate(30 256 256)" />
    <rect x="241" y="21" width="30" height="90" rx="15" transform="rotate(60 256 256)" />
    <rect x="241" y="21" width="30" height="90" rx="15" transform="rotate(90 256 256)" />
    <rect x="241" y="21" width="30" height="90" rx="15" transform="rotate(120 256 256)" />
    <rect x="241" y="21" width="30" height="90" rx="15" transform="rotate(150 256 256)" />
    <rect x="241" y="21" width="30" height="90" rx="15" transform="rotate(180 256 256)" />
    <rect x="241" y="21" width="30" height="90" rx="15" transform="rotate(210 256 256)" />
    <rect x="241" y="21" width="30" height="90" rx="15" transform="rotate(240 256 256)" />
    <rect x="241" y="21" width="30" height="90" rx="15" transform="rotate(270 256 256)" />
    <rect x="241" y="21" width="30" height="90" rx="15" transform="rotate(300 256 256)" />
    <rect x="241" y="21" width="30" height="90" rx="15" transform="rotate(330 256 256)" />
    <circle cx="256" cy="256" r="118" />
  </g>
</svg>